<svg width="200" height="200" viewBox="0 0 200 200" fill="none" xmlns="http://www.w3.org/2000/svg">
<g id="Abstract Design" clip-path="url(#clip0_154_29450)">
<g id="Group">
<path id="Vector" d="M0 24.9957L24.9957 0H49.9914V24.9957L24.9957 49.9914H0V24.9957Z" fill="#FFBE99"/>
<path id="Vector_2" d="M49.9918 0H24.9961V24.9957H49.9918V0Z" fill="#262626"/>
</g>
<g id="Group_2">
<path id="Vector_3" d="M0 75.0043L24.9957 49.9915H49.9914V75.0043L24.9957 100H0V75.0043Z" fill="#FFBE99"/>
<path id="Vector_4" d="M49.9918 49.9915H24.9961V74.9872H49.9918V49.9915Z" fill="#262626"/>
</g>
<g id="Group_3">
<path id="Vector_5" d="M0 124.996L24.9957 100H49.9914V124.996L24.9957 149.991H0V124.996Z" fill="#FFBE99"/>
<path id="Vector_6" d="M49.9918 100H24.9961V124.996H49.9918V100Z" fill="#262626"/>
</g>
<g id="Group_4">
<path id="Vector_7" d="M0 174.987L24.9957 149.991H49.9914V174.987L24.9957 200H0V174.987Z" fill="#FFBE99"/>
<path id="Vector_8" d="M49.9918 149.991H24.9961V174.987H49.9918V149.991Z" fill="#262626"/>
</g>
<g id="Group_5">
<path id="Vector_9" d="M49.9922 24.9957L75.0051 0H100.001V24.9957L75.0051 49.9914H49.9922V24.9957Z" fill="#FFBE99"/>
<path id="Vector_10" d="M100.002 0H75.0059V24.9957H100.002V0Z" fill="#262626"/>
</g>
<g id="Group_6">
<path id="Vector_11" d="M49.9922 75.0043L75.0051 49.9915H100.001V75.0043L75.0051 100H49.9922V75.0043Z" fill="#FFBE99"/>
<path id="Vector_12" d="M100.002 49.9915H75.0059V74.9872H100.002V49.9915Z" fill="#262626"/>
</g>
<g id="Group_7">
<path id="Vector_13" d="M49.9922 124.996L75.0051 100H100.001V124.996L75.0051 149.991H49.9922V124.996Z" fill="#FFBE99"/>
<path id="Vector_14" d="M100.002 100H75.0059V124.996H100.002V100Z" fill="#262626"/>
</g>
<g id="Group_8">
<path id="Vector_15" d="M100 24.9957L124.996 0H149.991V24.9957L124.996 49.9914H100V24.9957Z" fill="#FFBE99"/>
<path id="Vector_16" d="M149.992 0H124.996V24.9957H149.992V0Z" fill="#262626"/>
</g>
<g id="Group_9">
<path id="Vector_17" d="M149.992 24.9957L174.988 0H200.001V24.9957L174.988 49.9914H149.992V24.9957Z" fill="#FFBE99"/>
<path id="Vector_18" d="M199.984 0H174.988V24.9957H199.984V0Z" fill="#262626"/>
</g>
<g id="Group_10">
<path id="Vector_19" d="M100 75.0043L124.996 49.9915H149.991V75.0043L124.996 100H100V75.0043Z" fill="#FFBE99"/>
<path id="Vector_20" d="M149.992 49.9915H124.996V74.9872H149.992V49.9915Z" fill="#262626"/>
</g>
</g>
<defs>
<clipPath id="clip0_154_29450">
<rect width="200" height="200" fill="white"/>
</clipPath>
</defs>
</svg>
