<svg xmlns="http://www.w3.org/2000/svg" version="1.1" xmlns:xlink="http://www.w3.org/1999/xlink" xmlns:svgjs="http://svgjs.dev/svgjs" width="1440" height="560" preserveAspectRatio="none" viewBox="0 0 1440 560"><g mask="url(&quot;#SvgjsMask1005&quot;)" fill="none"><path d="M1218.45 393.24a42.49 42.49 0 1 0 44.37-72.47z" fill="rgba(175, 224, 178, 1)"></path><path d="M53.09 488.92 a2.99 2.99 0 1 0 5.98 0 a2.99 2.99 0 1 0 -5.98 0z" stroke="rgba(175, 224, 178, 1)"></path><path d="M1115.35 189.22L1131.68 189.22L1131.68 235.97L1115.35 235.97z" stroke="rgba(175, 224, 178, 1)"></path><path d="M637.06 154.08L666.98 154.08L666.98 169.52L637.06 169.52z" stroke="rgba(175, 224, 178, 1)"></path><path d="M223.02 422.86 a42.77 42.77 0 1 0 85.54 0 a42.77 42.77 0 1 0 -85.54 0z" fill="rgba(175, 224, 178, 1)"></path><path d="M763.67 422.77L794.33 422.77L794.33 453.43L763.67 453.43z" fill="rgba(175, 224, 178, 1)"></path><path d="M85.94 277.55L107.75 277.55L107.75 299.36L85.94 299.36z" fill="rgba(175, 224, 178, 1)"></path><path d="M1017.54 134.07 a46.51 46.51 0 1 0 93.02 0 a46.51 46.51 0 1 0 -93.02 0z" stroke="rgba(175, 224, 178, 1)"></path><path d="M639.84 267.59L642.82 267.59L642.82 270.57L639.84 270.57z" stroke="rgba(175, 224, 178, 1)"></path><path d="M1367.85 538.94a9.46 9.46 0 1 0 16.12-9.91z" fill="rgba(175, 224, 178, 1)"></path><path d="M1014.47 554.24L1046.02 554.24L1046.02 575.03L1014.47 575.03z" fill="rgba(175, 224, 178, 1)"></path><path d="M331.59 527.75L341.52 527.75L341.52 569.38L331.59 569.38z" fill="rgba(175, 224, 178, 1)"></path><path d="M481.7 286.26 a11.29 11.29 0 1 0 22.58 0 a11.29 11.29 0 1 0 -22.58 0z" stroke="rgba(175, 224, 178, 1)"></path><path d="M191.32 380.93L227.24 380.93L227.24 384.12L191.32 384.12z" stroke="rgba(175, 224, 178, 1)"></path><path d="M1463 435.2a41.96 41.96 0 1 0-46.86 69.62z" fill="rgba(175, 224, 178, 1)"></path><path d="M629.36 345.06a37.04 37.04 0 1 0 32.9 66.38z" stroke="rgba(175, 224, 178, 1)"></path><path d="M1232.71 391.62 a31.47 31.47 0 1 0 62.94 0 a31.47 31.47 0 1 0 -62.94 0z" fill="rgba(175, 224, 178, 1)"></path><path d="M1137.57 68.72L1190.15 68.72L1190.15 121.3L1137.57 121.3z" fill="rgba(175, 224, 178, 1)"></path><path d="M318.04 267.37L332.06 267.37L332.06 281.39L318.04 281.39z" fill="rgba(175, 224, 178, 1)"></path><path d="M537.78 447.11L592.1 447.11L592.1 486.61L537.78 486.61z" stroke="rgba(175, 224, 178, 1)"></path><path d="M195.02 86.85a50.9 50.9 0 1 0 101.78 1.9z" stroke="rgba(175, 224, 178, 1)"></path><path d="M280.68 327.76L286.42 327.76L286.42 333.5L280.68 333.5z" fill="rgba(175, 224, 178, 1)"></path><path d="M1331.55 311.23L1340.03 311.23L1340.03 319.71L1331.55 319.71z" fill="rgba(175, 224, 178, 1)"></path><path d="M43.57 53.64 a25.76 25.76 0 1 0 51.52 0 a25.76 25.76 0 1 0 -51.52 0z" stroke="rgba(175, 224, 178, 1)"></path><path d="M888.73 205.68L925.29 205.68L925.29 211.08L888.73 211.08z" stroke="rgba(175, 224, 178, 1)"></path><path d="M430.74 457.37L454.56 457.37L454.56 481.19L430.74 481.19z" fill="rgba(175, 224, 178, 1)"></path><path d="M514.29 237.13L556.62 237.13L556.62 280.86L514.29 280.86z" fill="rgba(175, 224, 178, 1)"></path><path d="M1029.59 191.95a55.48 55.48 0 1 0 109.49-18z" stroke="rgba(175, 224, 178, 1)"></path><path d="M1378.39 507.16a53.99 53.99 0 1 0-20.87-105.94z" stroke="rgba(175, 224, 178, 1)"></path><path d="M1136.86 487.02L1163.01 487.02L1163.01 522.29L1136.86 522.29z" fill="rgba(175, 224, 178, 1)"></path><path d="M1226.78 382.65 a40.46 40.46 0 1 0 80.92 0 a40.46 40.46 0 1 0 -80.92 0z" stroke="rgba(175, 224, 178, 1)"></path><path d="M68.68 116.61 a10.17 10.17 0 1 0 20.34 0 a10.17 10.17 0 1 0 -20.34 0z" stroke="rgba(175, 224, 178, 1)"></path><path d="M6.78 15.96L39.37 15.96L39.37 55.55L6.78 55.55z" fill="rgba(175, 224, 178, 1)"></path></g><defs><mask id="SvgjsMask1005"><rect width="1440" height="560" fill="#ffffff"></rect></mask></defs></svg>