<svg xmlns="http://www.w3.org/2000/svg" version="1.1" xmlns:xlink="http://www.w3.org/1999/xlink" xmlns:svgjs="http://svgjs.dev/svgjs" width="1440" height="560" preserveAspectRatio="none" viewBox="0 0 1440 560"><g mask="url(&quot;#SvgjsMask1004&quot;)" fill="none"><path d="M975.01 195.03a32.06 32.06 0 1 0 29.95 56.7z" stroke="rgba(228, 171, 90, 1)"></path><path d="M956.92 20.47L982.98 20.47L982.98 54.03L956.92 54.03z" fill="rgba(228, 171, 90, 1)"></path><path d="M1124.56 27.31L1160.75 27.31L1160.75 81.05L1124.56 81.05z" stroke="rgba(175, 224, 178, 1)"></path><path d="M219.07 553.82 a25.95 25.95 0 1 0 51.9 0 a25.95 25.95 0 1 0 -51.9 0z" fill="rgba(175, 224, 178, 1)"></path><path d="M1125.5 469.05L1159 469.05L1159 502.55L1125.5 502.55z" stroke="rgba(175, 224, 178, 1)"></path><path d="M512.43 460.84a25.39 25.39 0 1 0-45.87 21.77z" fill="rgba(228, 171, 90, 1)"></path><path d="M633.05 115.22L675.18 115.22L675.18 157.35L633.05 157.35z" fill="rgba(228, 171, 90, 1)"></path><path d="M219.88 89.82L254.95 89.82L254.95 102.5L219.88 102.5z" fill="rgba(175, 224, 178, 1)"></path><path d="M921.25 210.98a12.01 12.01 0 1 0-4.1 23.67z" fill="rgba(175, 224, 178, 1)"></path><path d="M361.99 297.62L394.46 297.62L394.46 330.09L361.99 330.09z" fill="rgba(228, 171, 90, 1)"></path><path d="M1426.33 9.78 a3.34 3.34 0 1 0 6.68 0 a3.34 3.34 0 1 0 -6.68 0z" stroke="rgba(175, 224, 178, 1)"></path><path d="M126.24 345.48a8.32 8.32 0 1 0 14.44 8.27z" fill="rgba(175, 224, 178, 1)"></path><path d="M18.25 223.24L73.95 223.24L73.95 278.27L18.25 278.27z" stroke="rgba(228, 171, 90, 1)"></path><path d="M577.8 409.82a29.63 29.63 0 1 0-43.9 39.8z" stroke="rgba(228, 171, 90, 1)"></path><path d="M262.88 153.55L283.88 153.55L283.88 167.75L262.88 167.75z" fill="rgba(175, 224, 178, 1)"></path><path d="M1296.8 158.24L1309.59 158.24L1309.59 171.03L1296.8 171.03z" fill="rgba(228, 171, 90, 1)"></path><path d="M274.34 478.34a27.89 27.89 0 1 0-30.58-46.65z" stroke="rgba(175, 224, 178, 1)"></path><path d="M991.43 265.27L1002.74 265.27L1002.74 312.32L991.43 312.32z" fill="rgba(175, 224, 178, 1)"></path><path d="M1363.13 406.58L1415.2 406.58L1415.2 451.68L1363.13 451.68z" fill="rgba(228, 171, 90, 1)"></path><path d="M735.74 38.49 a52.38 52.38 0 1 0 104.76 0 a52.38 52.38 0 1 0 -104.76 0z" stroke="rgba(228, 171, 90, 1)"></path><path d="M1099.85 543.36 a5.01 5.01 0 1 0 10.02 0 a5.01 5.01 0 1 0 -10.02 0z" stroke="rgba(228, 171, 90, 1)"></path><path d="M159.58 42.9a1.54 1.54 0 1 0 0.86 2.95z" fill="rgba(175, 224, 178, 1)"></path><path d="M1013.14 365.37L1019.17 365.37L1019.17 415.71L1013.14 415.71z" stroke="rgba(228, 171, 90, 1)"></path><path d="M646.15 201.17a55.41 55.41 0 1 0-96.73 54.07z" stroke="rgba(228, 171, 90, 1)"></path><path d="M1284.05 140.45 a35.32 35.32 0 1 0 70.64 0 a35.32 35.32 0 1 0 -70.64 0z" fill="rgba(175, 224, 178, 1)"></path><path d="M976.06 141.36L983.21 141.36L983.21 159.4L976.06 159.4z" stroke="rgba(228, 171, 90, 1)"></path><path d="M531.66 494.89L557.02 494.89L557.02 520.25L531.66 520.25z" fill="rgba(175, 224, 178, 1)"></path><path d="M696.11 529.85 a22.69 22.69 0 1 0 45.38 0 a22.69 22.69 0 1 0 -45.38 0z" stroke="rgba(228, 171, 90, 1)"></path><path d="M18.03 69.95 a3.08 3.08 0 1 0 6.16 0 a3.08 3.08 0 1 0 -6.16 0z" fill="rgba(228, 171, 90, 1)"></path><path d="M997.59 516.43L1017.83 516.43L1017.83 561.56L997.59 561.56z" stroke="rgba(228, 171, 90, 1)"></path><path d="M1022.87 247.22a26.43 26.43 0 1 0-40.75-33.67z" fill="rgba(175, 224, 178, 1)"></path><path d="M1364.1 470.91 a32.48 32.48 0 1 0 64.96 0 a32.48 32.48 0 1 0 -64.96 0z" fill="rgba(228, 171, 90, 1)"></path><path d="M85.11 536.48L120.35 536.48L120.35 571.72L85.11 571.72z" fill="rgba(175, 224, 178, 1)"></path></g><defs><mask id="SvgjsMask1004"><rect width="1440" height="560" fill="#ffffff"></rect></mask></defs></svg>