<svg xmlns="http://www.w3.org/2000/svg" version="1.1" xmlns:xlink="http://www.w3.org/1999/xlink" xmlns:svgjs="http://svgjs.dev/svgjs" width="1440" height="560" preserveAspectRatio="none" viewBox="0 0 1440 560"><g mask="url(&quot;#SvgjsMask1002&quot;)" fill="none"><path d="M401.02 0C435.92 37.58 401.23 72.64 410 140C410.72 145.56 415.73 145.83 420 145.83C422.53 145.83 423.11 143.38 423.59 140C433.48 70.46 403.78 37.93 440.74 0C471.99 -32.07 500.37 0 560 0C630 0 630 0 700 0C770 0 770 0 840 0C910 0 910 0 980 0C1050 0 1050 0 1120 0C1159.38 0 1162.81 -10.94 1198.75 0C1232.81 10.37 1231.4 18.77 1260 42.61C1315.36 88.77 1312.42 92.4 1366.67 140C1382.42 153.82 1383.68 165.45 1400 165.45C1415.24 165.45 1426.57 158.09 1429.79 140C1441.3 75.36 1398.68 39.12 1429.47 0C1453.78 -30.88 1515.62 -30.88 1540 0C1570.88 39.12 1540 70 1540 140C1540 210 1540 210 1540 280C1540 350 1540 350 1540 420C1540 490 1575 525 1540 560C1505 595 1470 560 1400 560C1330 560 1330 560 1260 560C1226 560 1224.66 566.84 1192 560C1154.66 552.19 1155.57 530.7 1120 530.7C1088.84 530.7 1091.04 553.2 1058.54 560C1021.04 567.85 1019.27 560 980 560C910 560 910 560 840 560C770 560 770 560 700 560C655.74 560 644.08 580.38 611.47 560C574.08 536.63 592.93 509.71 560 472.5C530.99 439.71 523.3 446.9 487.59 420C453.3 394.17 459.46 376.79 420 367.03C355.66 351.12 346.95 354.48 280 368.67C221.95 380.97 217.42 385.88 170 420C147.42 436.25 160.14 469.41 140 469.41C110.14 469.41 107.66 439.4 70 420C37.66 403.34 13.49 424.29 0 397.3C-21.51 354.29 0 338.65 0 280C0 210 0 210 0 140C0 70 -35 35 0 0C35 -35 70 0 140 0C210 0 210 0 280 0C340.51 0 370.92 -32.42 401.02 0" stroke="rgba(51, 194, 62, 0.58)" stroke-width="2"></path><path d="M980 106.52C962.39 115.44 958.93 120.43 956.67 140C948.93 207.17 951.81 211.21 960 280C963.48 309.21 973.33 336 980 336C986.31 336 967.8 298.77 985.96 280C1037.8 226.41 1054.58 237.81 1120 191.27C1152.98 167.81 1182.76 169.37 1182.76 140C1182.76 102.37 1161.73 64.16 1120 57.27C1060.35 47.42 1044.05 74.08 980 106.52" stroke="rgba(51, 194, 62, 0.58)" stroke-width="2"></path><path d="M840 350C815.67 350 816.34 387.49 816.34 420C816.34 435.42 824.15 445.85 840 445.85C891.98 445.85 952 442.3 952 420C952 394.38 883.5 350 840 350" stroke="rgba(51, 194, 62, 0.58)" stroke-width="2"></path><path d="M1260 382.16C1245.85 382.16 1242.05 400.59 1242.05 420C1242.05 445.43 1244.54 471.85 1260 471.85C1281.51 471.85 1316 443.78 1316 420C1316 398.94 1282.83 382.16 1260 382.16" stroke="rgba(51, 194, 62, 0.58)" stroke-width="2"></path><path d="M0 469.41C19.54 469.41 70 531.89 70 560C70 577.19 15.26 579.74 0 560C-19.74 534.45 -15.46 469.41 0 469.41" stroke="rgba(51, 194, 62, 0.58)" stroke-width="2"></path><path d="M199.23 560C199.23 544.39 240.36 503.24 280 503.24C316.95 503.24 352.41 544.12 352.41 560C352.41 572.5 316.21 560 280 560C239.62 560 199.23 572.77 199.23 560" stroke="rgba(51, 194, 62, 0.58)" stroke-width="2"></path><path d="M98.82 0C122.97 41.15 68.72 78.76 82.17 140C89.31 172.51 105.76 175.87 140 187.5C204.68 209.47 214.69 184.08 280 207.2C345.36 230.33 401.33 252.63 401.33 280C401.33 304.19 338.73 289.54 280 310.33C208.06 335.79 209.26 374.39 140 372.5C69.26 370.57 61.13 343.09 0 302.7C-8.87 296.84 0 291.35 0 280C0 210 0 210 0 140C0 70 -28.96 41.04 0 0C20.45 -28.96 81.89 -28.85 98.82 0" stroke="rgba(51, 194, 62, 0.58)" stroke-width="2"></path><path d="M280 95.79C239.82 95.79 191.22 28.51 191.22 0C191.22 -19.38 235.61 0 280 0C310.85 0 341.69 -16.82 341.69 0C341.69 31.07 315.05 95.79 280 95.79" stroke="rgba(51, 194, 62, 0.58)" stroke-width="2"></path><path d="M513.33 140C530.25 74.95 488.75 50.42 505.56 0C512.09 -19.58 532.78 0 560 0C630 0 630 0 700 0C717.5 0 717.6 -1.58 735 0C787.6 4.78 788.31 12.73 840 12.73C856.97 12.73 855.24 1.55 872.31 0C925.24 -4.81 926.15 0 980 0C1021.17 0 1062.35 -7.36 1062.35 0C1062.35 7.85 1011.47 2.67 980 30.43C932.12 72.67 941.02 84.67 903.64 140C871.02 188.29 879.96 197.55 840 237.67C810.23 267.55 778.13 245.1 764.17 280C741.65 336.27 745.64 358 767.04 420C783.55 467.84 796.34 469.67 840 499.69C898.16 539.67 970.67 544.2 970.67 560C970.67 574.35 905.34 560 840 560C770 560 770 560 700 560C681.47 560 673.27 573.37 662.94 560C619.18 503.37 629.67 488.64 591.82 420C578.2 395.31 580.97 391.78 560 373.33C501.42 321.78 444.26 337.65 432.73 280C420.93 220.99 493.84 214.95 513.33 140" stroke="rgba(51, 194, 62, 0.58)" stroke-width="2"></path><path d="M700 28C687.46 28 667.06 87.66 667.06 140C667.06 162.32 686.42 177.33 700 177.33C711.13 177.33 716.47 159.78 716.47 140C716.47 85.12 712.16 28 700 28" stroke="rgba(51, 194, 62, 0.58)" stroke-width="2"></path><path d="M1243.1 140C1253.32 131.1 1250.7 118.7 1260 118.7C1270.81 118.7 1270.93 130.23 1283.33 140C1340.93 185.42 1342.89 229.09 1400 229.09C1453.35 229.09 1481.83 196.55 1504.26 140C1527.27 82.01 1477.64 51.88 1490.88 0C1495.51 -18.12 1533.62 -18.18 1540 0C1558.18 51.82 1540 70 1540 140C1540 210 1540 210 1540 280C1540 350 1540 350 1540 420C1540 483.34 1543.05 484.07 1540 546.67C1539.64 554.07 1540.25 559.33 1533.17 560C1470.25 565.99 1466.59 560 1400 560C1341.91 560 1283.83 583.35 1283.83 560C1283.83 527.64 1339.03 500.48 1400 448.57C1421.25 430.48 1448.28 437.12 1448.28 420C1448.28 399.5 1427.33 392.55 1400 373.33C1333.19 326.34 1313.58 275.24 1260 287.57C1212.17 298.58 1238.09 360.84 1197.18 420C1168.09 462.06 1160.16 490 1120 490C1075.26 490 1040.68 466.9 1027.38 420C1010.9 361.9 1029.49 339.95 1060.43 280C1075.8 250.23 1091.68 262.27 1120 240.56C1183.01 192.27 1183.32 192.03 1243.1 140" stroke="rgba(51, 194, 62, 0.58)" stroke-width="2"></path><path d="M30.2 0C32.71 57.73 19.78 70.5 6.09 140C4.68 147.17 1.59 153.33 0 153.33C-1.45 153.33 0 146.67 0 140C0 70 -12.42 57.58 0 0C2.68 -12.42 29.67 -12.27 30.2 0" stroke="rgba(51, 194, 62, 0.58)" stroke-width="2"></path><path d="M280 3.68C278.46 3.68 276.59 1.1 276.59 0C276.59 -0.74 278.29 0 280 0C281.18 0 282.37 -0.65 282.37 0C282.37 1.19 281.35 3.68 280 3.68" stroke="rgba(51, 194, 62, 0.58)" stroke-width="2"></path><path d="M819.41 140C819.41 130.07 831.34 118.79 840 118.79C846.94 118.79 850.61 129.7 850.61 140C850.61 148.44 846.64 156.28 840 156.28C831.04 156.28 819.41 148.82 819.41 140" stroke="rgba(51, 194, 62, 0.58)" stroke-width="2"></path><path d="M85.81 280C85.81 265 112.15 250 140 250C174.24 250 210 265 210 280C210 295 174.24 310 140 310C112.15 310 85.81 295 85.81 280" stroke="rgba(51, 194, 62, 0.58)" stroke-width="2"></path><path d="M671.36 420C671.36 391.66 687.99 365.22 700 365.22C711.19 365.22 717.75 392.2 717.75 420C717.75 458.97 711.38 498.75 700 498.75C688.19 498.75 671.36 458.42 671.36 420" stroke="rgba(51, 194, 62, 0.58)" stroke-width="2"></path><path d="M1081.23 420C1081.23 371.04 1102.08 310.43 1120 310.43C1137.62 310.43 1152.31 369.75 1152.31 420C1152.31 439.19 1136.81 449.3 1120 449.3C1101.27 449.3 1081.23 440.47 1081.23 420" stroke="rgba(51, 194, 62, 0.58)" stroke-width="2"></path><path d="M798 560C798 558.38 819.45 553.54 840 553.54C847.45 553.54 854 558.31 854 560C854 561.54 847 560 840 560C819 560 798 561.61 798 560" stroke="rgba(51, 194, 62, 0.58)" stroke-width="2"></path><path d="M1358.3 560C1358.3 548.38 1378.47 520 1400 520C1423.22 520 1447.8 548.68 1447.8 560C1447.8 568.68 1423.9 560 1400 560C1379.15 560 1358.3 568.38 1358.3 560" stroke="rgba(51, 194, 62, 0.58)" stroke-width="2"></path></g><defs><mask id="SvgjsMask1002"><rect width="1440" height="560" fill="#ffffff"></rect></mask></defs></svg>