<svg width="21" height="20" viewBox="0 0 21 20" fill="none" xmlns="http://www.w3.org/2000/svg">
<g id="Icon">
<path id="Subtract" fill-rule="evenodd" clip-rule="evenodd" d="M10.5 1.875C6.01269 1.875 2.375 5.51269 2.375 10C2.375 14.4873 6.01269 18.125 10.5 18.125C14.9873 18.125 18.625 14.4873 18.625 10C18.625 5.51269 14.9873 1.875 10.5 1.875ZM11.125 5C11.125 4.65482 10.8452 4.375 10.5 4.375C10.1548 4.375 9.875 4.65482 9.875 5V10C9.875 10.3452 10.1548 10.625 10.5 10.625H14.25C14.5952 10.625 14.875 10.3452 14.875 10C14.875 9.65482 14.5952 9.375 14.25 9.375H11.125V5Z" fill="#262626"/>
</g>
</svg>
