<svg xmlns="http://www.w3.org/2000/svg" version="1.1" xmlns:xlink="http://www.w3.org/1999/xlink" xmlns:svgjs="http://svgjs.dev/svgjs" width="1440" height="560" preserveAspectRatio="none" viewBox="0 0 1440 560"><g clip-path="url(&quot;#SvgjsClipPath1007&quot;)" fill="none"><circle r="93.335" cx="-43.87" cy="-45.65" stroke="#36a343" stroke-opacity="0.25" stroke-width="2"></circle><circle r="93.335" cx="441.95" cy="366.29" stroke="#36a343" stroke-opacity="0.25" stroke-width="2"></circle><circle r="93.335" cx="670.76" cy="748.98" stroke="#36a343" stroke-opacity="0.25" stroke-width="2"></circle><circle r="156.98" cx="1093.92" cy="43.75" stroke="#36a343" stroke-opacity="0.25" stroke-width="2"></circle><circle r="49.025" cx="1160.97" cy="430.75" stroke="#36a343" stroke-opacity="0.25" stroke-width="2"></circle><circle r="109" cx="914.63" cy="102.75" stroke="#36a343" stroke-opacity="0.25" stroke-width="2"></circle><circle r="141.09" cx="543.99" cy="536.58" stroke="#36a343" stroke-opacity="0.25" stroke-width="2"></circle><circle r="148.75" cx="606.54" cy="368.82" stroke="#36a343" stroke-opacity="0.25" stroke-width="2"></circle><circle r="57.565" cx="348.06" cy="20.94" stroke="#36a343" stroke-opacity="0.25" stroke-width="2"></circle><circle r="104.28" cx="1096.74" cy="490.48" stroke="#36a343" stroke-opacity="0.25" stroke-width="2"></circle><circle r="128.95" cx="1078.55" cy="370.95" stroke="#36a343" stroke-opacity="0.25" stroke-width="2"></circle><circle r="179.26" cx="289.75" cy="502.41" stroke="#36a343" stroke-opacity="0.25" stroke-width="2"></circle><circle r="126.565" cx="1171.56" cy="284.63" stroke="#36a343" stroke-opacity="0.25" stroke-width="2"></circle><circle r="107.88" cx="212.33" cy="170.26" stroke="#36a343" stroke-opacity="0.25" stroke-width="2"></circle><circle r="175.815" cx="778.78" cy="246.09" stroke="#36a343" stroke-opacity="0.25" stroke-width="2"></circle><circle r="57.67" cx="1038.8" cy="357.15" stroke="#36a343" stroke-opacity="0.25" stroke-width="2"></circle><circle r="100.975" cx="674.89" cy="328.63" stroke="#36a343" stroke-opacity="0.25" stroke-width="2"></circle><circle r="159.16" cx="789.61" cy="222.8" stroke="#36a343" stroke-opacity="0.25" stroke-width="2"></circle><circle r="102.705" cx="288.96" cy="116.99" stroke="#36a343" stroke-opacity="0.25" stroke-width="2"></circle><circle r="117.815" cx="190.78" cy="218.69" stroke="#36a343" stroke-opacity="0.25" stroke-width="2"></circle><circle r="170.11" cx="168.64" cy="419.94" stroke="#36a343" stroke-opacity="0.25" stroke-width="2"></circle><circle r="183.04" cx="184.15" cy="248.58" stroke="#36a343" stroke-opacity="0.25" stroke-width="2"></circle><circle r="108.565" cx="1169.65" cy="199.33" stroke="#36a343" stroke-opacity="0.25" stroke-width="2"></circle><circle r="158.535" cx="938.76" cy="95.9" stroke="#36a343" stroke-opacity="0.25" stroke-width="2"></circle><circle r="85.77" cx="1230.46" cy="47.81" stroke="#36a343" stroke-opacity="0.25" stroke-width="2"></circle><circle r="124.11" cx="928.37" cy="265.42" stroke="#36a343" stroke-opacity="0.25" stroke-width="2"></circle><circle r="132.44" cx="1422.17" cy="112.82" stroke="#36a343" stroke-opacity="0.25" stroke-width="2"></circle><circle r="109.265" cx="1284.08" cy="542.3" stroke="#36a343" stroke-opacity="0.25" stroke-width="2"></circle><circle r="120.14" cx="347.6" cy="445.88" stroke="#36a343" stroke-opacity="0.25" stroke-width="2"></circle><circle r="104.425" cx="1044.61" cy="30.06" stroke="#36a343" stroke-opacity="0.25" stroke-width="2"></circle><circle r="48.105" cx="1048.18" cy="395.37" stroke="#36a343" stroke-opacity="0.25" stroke-width="2"></circle><circle r="81.355" cx="797.42" cy="223.25" stroke="#36a343" stroke-opacity="0.25" stroke-width="2"></circle><circle r="179.785" cx="1032.06" cy="299.79" stroke="#36a343" stroke-opacity="0.25" stroke-width="2"></circle><circle r="120.31" cx="1265.7" cy="555.73" stroke="#36a343" stroke-opacity="0.25" stroke-width="2"></circle><circle r="115.375" cx="694.98" cy="281.73" stroke="#36a343" stroke-opacity="0.25" stroke-width="2"></circle><circle r="46.87" cx="815.78" cy="22.65" stroke="#36a343" stroke-opacity="0.25" stroke-width="2"></circle><circle r="106.5" cx="810.55" cy="473.86" stroke="#36a343" stroke-opacity="0.25" stroke-width="2"></circle><circle r="114.36" cx="1403.66" cy="71.32" stroke="#36a343" stroke-opacity="0.25" stroke-width="2"></circle><circle r="175.28" cx="1379.3" cy="201.43" stroke="#36a343" stroke-opacity="0.25" stroke-width="2"></circle><circle r="162.785" cx="847.34" cy="535.28" stroke="#36a343" stroke-opacity="0.25" stroke-width="2"></circle></g><defs><clipPath id="SvgjsClipPath1007"><rect width="1440" height="560" x="0" y="0"></rect></clipPath></defs></svg>