<svg xmlns="http://www.w3.org/2000/svg" version="1.1" xmlns:xlink="http://www.w3.org/1999/xlink" xmlns:svgjs="http://svgjs.dev/svgjs" viewBox="0 0 2400 800"><defs><linearGradient x1="50%" y1="0%" x2="50%" y2="100%" id="sssurf-grad"><stop stop-color="hsla(105, 61%, 66%, 1.00)" stop-opacity="1" offset="0%"></stop><stop stop-color="hsla(105, 66%, 64%, 1.00)" stop-opacity="1" offset="100%"></stop></linearGradient></defs><g fill="url(#sssurf-grad)" transform="matrix(1,0,0,1,0,-90.25143432617188)"><path d="M 0 321.0704446077125 Q 450 489.84407745526397 600 316.8161169998253 Q 1050 509.234005996359 1200 331.778091929001 Q 1650 460.4550824723555 1800 340.43118395264804 Q 2250 597.4779330124463 2400 315.78501888602915 L 2400 800 L 0 800 L 0 300.5028611694844 Z" transform="matrix(1,0,0,1,0,35)" opacity="0.05"></path><path d="M 0 321.0704446077125 Q 450 489.84407745526397 600 316.8161169998253 Q 1050 509.234005996359 1200 331.778091929001 Q 1650 460.4550824723555 1800 340.43118395264804 Q 2250 597.4779330124463 2400 315.78501888602915 L 2400 800 L 0 800 L 0 300.5028611694844 Z" transform="matrix(1,0,0,1,0,70)" opacity="0.21"></path><path d="M 0 321.0704446077125 Q 450 489.84407745526397 600 316.8161169998253 Q 1050 509.234005996359 1200 331.778091929001 Q 1650 460.4550824723555 1800 340.43118395264804 Q 2250 597.4779330124463 2400 315.78501888602915 L 2400 800 L 0 800 L 0 300.5028611694844 Z" transform="matrix(1,0,0,1,0,105)" opacity="0.37"></path><path d="M 0 321.0704446077125 Q 450 489.84407745526397 600 316.8161169998253 Q 1050 509.234005996359 1200 331.778091929001 Q 1650 460.4550824723555 1800 340.43118395264804 Q 2250 597.4779330124463 2400 315.78501888602915 L 2400 800 L 0 800 L 0 300.5028611694844 Z" transform="matrix(1,0,0,1,0,140)" opacity="0.53"></path><path d="M 0 321.0704446077125 Q 450 489.84407745526397 600 316.8161169998253 Q 1050 509.234005996359 1200 331.778091929001 Q 1650 460.4550824723555 1800 340.43118395264804 Q 2250 597.4779330124463 2400 315.78501888602915 L 2400 800 L 0 800 L 0 300.5028611694844 Z" transform="matrix(1,0,0,1,0,175)" opacity="0.68"></path><path d="M 0 321.0704446077125 Q 450 489.84407745526397 600 316.8161169998253 Q 1050 509.234005996359 1200 331.778091929001 Q 1650 460.4550824723555 1800 340.43118395264804 Q 2250 597.4779330124463 2400 315.78501888602915 L 2400 800 L 0 800 L 0 300.5028611694844 Z" transform="matrix(1,0,0,1,0,210)" opacity="0.84"></path><path d="M 0 321.0704446077125 Q 450 489.84407745526397 600 316.8161169998253 Q 1050 509.234005996359 1200 331.778091929001 Q 1650 460.4550824723555 1800 340.43118395264804 Q 2250 597.4779330124463 2400 315.78501888602915 L 2400 800 L 0 800 L 0 300.5028611694844 Z" transform="matrix(1,0,0,1,0,245)" opacity="1"></path></g></svg>